<?xml version="1.0" encoding="UTF-8"?><svg xmlns="http://www.w3.org/2000/svg" xmlns:xlink="http://www.w3.org/1999/xlink" contentScriptType="application/ecmascript" contentStyleType="text/css" height="237px" preserveAspectRatio="none" style="width:390px;height:237px;" version="1.1" viewBox="0 0 390 237" width="390px" zoomAndPan="magnify">
    <defs>
        <filter height="300%" id="fpnxhf071uur4" width="300%" x="-1" y="-1">
            <feGaussianBlur result="blurOut" stdDeviation="2.0"/>
            <feColorMatrix in="blurOut" result="blurOut2" type="matrix" values="0 0 0 0 0 0 0 0 0 0 0 0 0 0 0 0 0 0 .4 0"/>
            <feOffset dx="4.0" dy="4.0" in="blurOut2" result="blurOut3"/>
            <feBlend in="SourceGraphic" in2="blurOut3" mode="normal"/>
        </filter>
    </defs>
    <g>
        <!--MD5=[aa8f7b917213fcc1c2766e2d59b49067]
cluster java.lang-->
        <polygon fill="#FFFFFF" filter="url(#fpnxhf071uur4)" points="16,130,85,130,92,153.6094,126,153.6094,126,230,16,230,16,130" style="stroke:#000000;stroke-width:1.5;"/>
        <line style="stroke:#000000;stroke-width:1.5;" x1="16" x2="92" y1="153.6094" y2="153.6094"/>
        <text fill="#000000" font-family="sans-serif" font-size="14" font-weight="bold" lengthAdjust="spacing" textLength="63" x="20" y="146.5332">java.lang</text>
        <!--MD5=[c02db58a9ee891e173df71a70645b786]
cluster Productos-->
        <polygon fill="#FFFFFF" filter="url(#fpnxhf071uur4)" points="30,6,108,6,115,29.6094,366,29.6094,366,106,30,106,30,6" style="stroke:#000000;stroke-width:1.5;"/>
        <line style="stroke:#000000;stroke-width:1.5;" x1="30" x2="115" y1="29.6094" y2="29.6094"/>
        <text fill="#000000" font-family="sans-serif" font-size="14" font-weight="bold" lengthAdjust="spacing" textLength="72" x="34" y="22.5332">Productos</text>
        <!--MD5=[a27d47990de919e54936671a59a1e480]
cluster SuperClases-->
        <polygon fill="#FFFFFF" filter="url(#fpnxhf071uur4)" points="150,130,245,130,252,153.6094,373,153.6094,373,230,150,230,150,130" style="stroke:#000000;stroke-width:1.5;"/>
        <line style="stroke:#000000;stroke-width:1.5;" x1="150" x2="252" y1="153.6094" y2="153.6094"/>
        <text fill="#000000" font-family="sans-serif" font-size="14" font-weight="bold" lengthAdjust="spacing" textLength="89" x="154" y="146.5332">SuperClases</text>
        <!--MD5=[3c78a2fa643d9223b1f8ad930e883961]
class java.lang.Override-->
        <rect codeLine="1" fill="#FEFECE" filter="url(#fpnxhf071uur4)" height="48" id="java.lang.Override" style="stroke:#A80036;stroke-width:1.5;" width="78" x="32" y="166"/>
        <ellipse cx="47" cy="182" fill="#E3664A" rx="11" ry="11" style="stroke:#A80036;stroke-width:1.0;"/>
        <path d="M49.3438,179.5781 L49.3438,179.0625 Q49.3438,178.2344 48.8594,177.7344 Q48.3906,177.2344 47.6406,177.2344 Q47.0469,177.2344 46.5156,177.6406 Q45.9844,178.0313 45.7188,178.6563 Q45.25,179.75 45.25,180.8594 L45.25,183.375 Q45.25,185.2969 46.1094,186.4219 Q46.6719,187.1719 47.6875,187.1719 Q48.2344,187.1719 48.6719,187.0313 Q49.125,186.8906 49.375,186.6406 Q49.625,186.3906 49.8438,186.3906 Q50.1094,186.3906 50.2969,186.5781 Q50.4844,186.7656 50.4844,187.0313 Q50.4844,187.4531 49.9063,187.8438 Q49.0781,188.4063 47.6406,188.4063 Q46.5469,188.4063 45.8281,187.9063 Q44.9063,187.2656 44.4531,186 Q44,184.7344 44,183.5 L44,180.7656 Q44,178.7813 44.9844,177.3906 Q45.9688,175.9844 47.6094,175.9844 Q48.3594,175.9844 49,176.2969 Q49.6563,176.5938 50.125,177.3594 Q50.5938,178.125 50.5938,179.0625 L50.5938,183.5938 Q50.9531,183.7656 50.9531,184.1563 Q50.9531,184.4375 50.75,184.625 Q50.5625,184.7969 50.0938,184.7969 L49.3438,184.7969 L49.3438,184.75 Q48.9531,184.8125 48.7656,184.8125 Q47.7656,184.8125 47.0156,184.0781 Q46.2813,183.3281 46.2813,182.3281 Q46.2813,181.2656 47.0938,180.4688 Q47.9219,179.6719 49.3438,179.5781 Z M49.3438,180.8594 Q48.4531,180.9531 47.9844,181.375 Q47.5313,181.7969 47.5313,182.3438 Q47.5313,182.8281 47.9063,183.1719 Q48.2969,183.5156 48.9375,183.5156 Q49.0625,183.5156 49.3438,183.5 L49.3438,180.8594 Z " fill="#000000"/>
        <text fill="#000000" font-family="sans-serif" font-size="12" lengthAdjust="spacing" textLength="46" x="61" y="186.9102">Override</text>
        <line style="stroke:#A80036;stroke-width:1.5;" x1="33" x2="109" y1="198" y2="198"/>
        <line style="stroke:#A80036;stroke-width:1.5;" x1="33" x2="109" y1="206" y2="206"/>
        <!--MD5=[9dc38fbc2f035dbb7be55e5d2792dae2]
class Productos.Computadora-->
        <rect codeLine="2" fill="#FEFECE" filter="url(#fpnxhf071uur4)" height="48" id="Productos.Computadora" style="stroke:#A80036;stroke-width:1.5;" width="108" x="242" y="42"/>
        <ellipse cx="257" cy="58" fill="#ADD1B2" rx="11" ry="11" style="stroke:#A80036;stroke-width:1.0;"/>
        <path d="M259.7656,53.875 Q259.9219,53.6563 260.1094,53.5469 Q260.2969,53.4375 260.5156,53.4375 Q260.8906,53.4375 261.125,53.7031 Q261.3594,53.9531 261.3594,54.5625 L261.3594,56.0156 Q261.3594,56.625 261.125,56.8906 Q260.8906,57.1563 260.5156,57.1563 Q260.1719,57.1563 259.9688,56.9531 Q259.7656,56.7656 259.6563,56.25 Q259.6094,55.8906 259.4219,55.7031 Q259.0938,55.3281 258.4844,55.1094 Q257.875,54.8906 257.25,54.8906 Q256.4844,54.8906 255.8438,55.2188 Q255.2188,55.5469 254.7188,56.2969 Q254.2344,57.0469 254.2344,58.0781 L254.2344,59.1719 Q254.2344,60.4063 255.125,61.2344 Q256.0156,62.0469 257.6094,62.0469 Q258.5469,62.0469 259.2031,61.7969 Q259.5938,61.6406 260.0156,61.2031 Q260.2813,60.9375 260.4219,60.8594 Q260.5781,60.7813 260.7813,60.7813 Q261.1094,60.7813 261.3594,61.0469 Q261.625,61.2969 261.625,61.6406 Q261.625,61.9844 261.2813,62.3906 Q260.7813,62.9688 259.9844,63.2969 Q258.9063,63.75 257.6094,63.75 Q256.0938,63.75 254.8906,63.125 Q253.9063,62.625 253.2188,61.5625 Q252.5313,60.4844 252.5313,59.2031 L252.5313,58.0469 Q252.5313,56.7188 253.1406,55.5781 Q253.7656,54.4219 254.8594,53.8125 Q255.9531,53.1875 257.1875,53.1875 Q257.9219,53.1875 258.5625,53.3594 Q259.2188,53.5156 259.7656,53.875 Z " fill="#000000"/>
        <text fill="#000000" font-family="sans-serif" font-size="12" lengthAdjust="spacing" textLength="76" x="271" y="62.9102">Computadora</text>
        <line style="stroke:#A80036;stroke-width:1.5;" x1="243" x2="349" y1="74" y2="74"/>
        <line style="stroke:#A80036;stroke-width:1.5;" x1="243" x2="349" y1="82" y2="82"/>
        <!--MD5=[dae3648af9744275066ae784f4248f5b]
class Productos.Ropa-->
        <rect codeLine="3" fill="#FEFECE" filter="url(#fpnxhf071uur4)" height="48" id="Productos.Ropa" style="stroke:#A80036;stroke-width:1.5;" width="62" x="145" y="42"/>
        <ellipse cx="160" cy="58" fill="#ADD1B2" rx="11" ry="11" style="stroke:#A80036;stroke-width:1.0;"/>
        <path d="M162.7656,53.875 Q162.9219,53.6563 163.1094,53.5469 Q163.2969,53.4375 163.5156,53.4375 Q163.8906,53.4375 164.125,53.7031 Q164.3594,53.9531 164.3594,54.5625 L164.3594,56.0156 Q164.3594,56.625 164.125,56.8906 Q163.8906,57.1563 163.5156,57.1563 Q163.1719,57.1563 162.9688,56.9531 Q162.7656,56.7656 162.6563,56.25 Q162.6094,55.8906 162.4219,55.7031 Q162.0938,55.3281 161.4844,55.1094 Q160.875,54.8906 160.25,54.8906 Q159.4844,54.8906 158.8438,55.2188 Q158.2188,55.5469 157.7188,56.2969 Q157.2344,57.0469 157.2344,58.0781 L157.2344,59.1719 Q157.2344,60.4063 158.125,61.2344 Q159.0156,62.0469 160.6094,62.0469 Q161.5469,62.0469 162.2031,61.7969 Q162.5938,61.6406 163.0156,61.2031 Q163.2813,60.9375 163.4219,60.8594 Q163.5781,60.7813 163.7813,60.7813 Q164.1094,60.7813 164.3594,61.0469 Q164.625,61.2969 164.625,61.6406 Q164.625,61.9844 164.2813,62.3906 Q163.7813,62.9688 162.9844,63.2969 Q161.9063,63.75 160.6094,63.75 Q159.0938,63.75 157.8906,63.125 Q156.9063,62.625 156.2188,61.5625 Q155.5313,60.4844 155.5313,59.2031 L155.5313,58.0469 Q155.5313,56.7188 156.1406,55.5781 Q156.7656,54.4219 157.8594,53.8125 Q158.9531,53.1875 160.1875,53.1875 Q160.9219,53.1875 161.5625,53.3594 Q162.2188,53.5156 162.7656,53.875 Z " fill="#000000"/>
        <text fill="#000000" font-family="sans-serif" font-size="12" lengthAdjust="spacing" textLength="30" x="174" y="62.9102">Ropa</text>
        <line style="stroke:#A80036;stroke-width:1.5;" x1="146" x2="206" y1="74" y2="74"/>
        <line style="stroke:#A80036;stroke-width:1.5;" x1="146" x2="206" y1="82" y2="82"/>
        <!--MD5=[faede182c3064e6d37144e4cbf671d8e]
class Productos.jeans-->
        <rect codeLine="4" fill="#FEFECE" filter="url(#fpnxhf071uur4)" height="48" id="Productos.jeans" style="stroke:#A80036;stroke-width:1.5;" width="63" x="46.5" y="42"/>
        <ellipse cx="61.5" cy="58" fill="#ADD1B2" rx="11" ry="11" style="stroke:#A80036;stroke-width:1.0;"/>
        <path d="M64.2656,53.875 Q64.4219,53.6563 64.6094,53.5469 Q64.7969,53.4375 65.0156,53.4375 Q65.3906,53.4375 65.625,53.7031 Q65.8594,53.9531 65.8594,54.5625 L65.8594,56.0156 Q65.8594,56.625 65.625,56.8906 Q65.3906,57.1563 65.0156,57.1563 Q64.6719,57.1563 64.4688,56.9531 Q64.2656,56.7656 64.1563,56.25 Q64.1094,55.8906 63.9219,55.7031 Q63.5938,55.3281 62.9844,55.1094 Q62.375,54.8906 61.75,54.8906 Q60.9844,54.8906 60.3438,55.2188 Q59.7188,55.5469 59.2188,56.2969 Q58.7344,57.0469 58.7344,58.0781 L58.7344,59.1719 Q58.7344,60.4063 59.625,61.2344 Q60.5156,62.0469 62.1094,62.0469 Q63.0469,62.0469 63.7031,61.7969 Q64.0938,61.6406 64.5156,61.2031 Q64.7813,60.9375 64.9219,60.8594 Q65.0781,60.7813 65.2813,60.7813 Q65.6094,60.7813 65.8594,61.0469 Q66.125,61.2969 66.125,61.6406 Q66.125,61.9844 65.7813,62.3906 Q65.2813,62.9688 64.4844,63.2969 Q63.4063,63.75 62.1094,63.75 Q60.5938,63.75 59.3906,63.125 Q58.4063,62.625 57.7188,61.5625 Q57.0313,60.4844 57.0313,59.2031 L57.0313,58.0469 Q57.0313,56.7188 57.6406,55.5781 Q58.2656,54.4219 59.3594,53.8125 Q60.4531,53.1875 61.6875,53.1875 Q62.4219,53.1875 63.0625,53.3594 Q63.7188,53.5156 64.2656,53.875 Z " fill="#000000"/>
        <text fill="#000000" font-family="sans-serif" font-size="12" lengthAdjust="spacing" textLength="31" x="75.5" y="62.9102">jeans</text>
        <line style="stroke:#A80036;stroke-width:1.5;" x1="47.5" x2="108.5" y1="74" y2="74"/>
        <line style="stroke:#A80036;stroke-width:1.5;" x1="47.5" x2="108.5" y1="82" y2="82"/>
        <!--MD5=[dd0a637ab830a4750a4cd10751ba4455]
class SuperClases.Electronica-->
        <rect codeLine="5" fill="#FEFECE" filter="url(#fpnxhf071uur4)" height="48" id="SuperClases.Electronica" style="stroke:#A80036;stroke-width:1.5;" width="93" x="263.5" y="166"/>
        <ellipse cx="278.5" cy="182" fill="#ADD1B2" rx="11" ry="11" style="stroke:#A80036;stroke-width:1.0;"/>
        <path d="M281.2656,177.875 Q281.4219,177.6563 281.6094,177.5469 Q281.7969,177.4375 282.0156,177.4375 Q282.3906,177.4375 282.625,177.7031 Q282.8594,177.9531 282.8594,178.5625 L282.8594,180.0156 Q282.8594,180.625 282.625,180.8906 Q282.3906,181.1563 282.0156,181.1563 Q281.6719,181.1563 281.4688,180.9531 Q281.2656,180.7656 281.1563,180.25 Q281.1094,179.8906 280.9219,179.7031 Q280.5938,179.3281 279.9844,179.1094 Q279.375,178.8906 278.75,178.8906 Q277.9844,178.8906 277.3438,179.2188 Q276.7188,179.5469 276.2188,180.2969 Q275.7344,181.0469 275.7344,182.0781 L275.7344,183.1719 Q275.7344,184.4063 276.625,185.2344 Q277.5156,186.0469 279.1094,186.0469 Q280.0469,186.0469 280.7031,185.7969 Q281.0938,185.6406 281.5156,185.2031 Q281.7813,184.9375 281.9219,184.8594 Q282.0781,184.7813 282.2813,184.7813 Q282.6094,184.7813 282.8594,185.0469 Q283.125,185.2969 283.125,185.6406 Q283.125,185.9844 282.7813,186.3906 Q282.2813,186.9688 281.4844,187.2969 Q280.4063,187.75 279.1094,187.75 Q277.5938,187.75 276.3906,187.125 Q275.4063,186.625 274.7188,185.5625 Q274.0313,184.4844 274.0313,183.2031 L274.0313,182.0469 Q274.0313,180.7188 274.6406,179.5781 Q275.2656,178.4219 276.3594,177.8125 Q277.4531,177.1875 278.6875,177.1875 Q279.4219,177.1875 280.0625,177.3594 Q280.7188,177.5156 281.2656,177.875 Z " fill="#000000"/>
        <text fill="#000000" font-family="sans-serif" font-size="12" lengthAdjust="spacing" textLength="61" x="292.5" y="186.9102">Electronica</text>
        <line style="stroke:#A80036;stroke-width:1.5;" x1="264.5" x2="355.5" y1="198" y2="198"/>
        <line style="stroke:#A80036;stroke-width:1.5;" x1="264.5" x2="355.5" y1="206" y2="206"/>
        <!--MD5=[51bc9db3ee05f9b23d2eecde2bf3b577]
class SuperClases.Ropa-->
        <rect codeLine="6" fill="#FEFECE" filter="url(#fpnxhf071uur4)" height="48" id="SuperClases.Ropa" style="stroke:#A80036;stroke-width:1.5;" width="62" x="166" y="166"/>
        <ellipse cx="181" cy="182" fill="#ADD1B2" rx="11" ry="11" style="stroke:#A80036;stroke-width:1.0;"/>
        <path d="M183.7656,177.875 Q183.9219,177.6563 184.1094,177.5469 Q184.2969,177.4375 184.5156,177.4375 Q184.8906,177.4375 185.125,177.7031 Q185.3594,177.9531 185.3594,178.5625 L185.3594,180.0156 Q185.3594,180.625 185.125,180.8906 Q184.8906,181.1563 184.5156,181.1563 Q184.1719,181.1563 183.9688,180.9531 Q183.7656,180.7656 183.6563,180.25 Q183.6094,179.8906 183.4219,179.7031 Q183.0938,179.3281 182.4844,179.1094 Q181.875,178.8906 181.25,178.8906 Q180.4844,178.8906 179.8438,179.2188 Q179.2188,179.5469 178.7188,180.2969 Q178.2344,181.0469 178.2344,182.0781 L178.2344,183.1719 Q178.2344,184.4063 179.125,185.2344 Q180.0156,186.0469 181.6094,186.0469 Q182.5469,186.0469 183.2031,185.7969 Q183.5938,185.6406 184.0156,185.2031 Q184.2813,184.9375 184.4219,184.8594 Q184.5781,184.7813 184.7813,184.7813 Q185.1094,184.7813 185.3594,185.0469 Q185.625,185.2969 185.625,185.6406 Q185.625,185.9844 185.2813,186.3906 Q184.7813,186.9688 183.9844,187.2969 Q182.9063,187.75 181.6094,187.75 Q180.0938,187.75 178.8906,187.125 Q177.9063,186.625 177.2188,185.5625 Q176.5313,184.4844 176.5313,183.2031 L176.5313,182.0469 Q176.5313,180.7188 177.1406,179.5781 Q177.7656,178.4219 178.8594,177.8125 Q179.9531,177.1875 181.1875,177.1875 Q181.9219,177.1875 182.5625,177.3594 Q183.2188,177.5156 183.7656,177.875 Z " fill="#000000"/>
        <text fill="#000000" font-family="sans-serif" font-size="12" lengthAdjust="spacing" textLength="30" x="195" y="186.9102">Ropa</text>
        <line style="stroke:#A80036;stroke-width:1.5;" x1="167" x2="227" y1="198" y2="198"/>
        <line style="stroke:#A80036;stroke-width:1.5;" x1="167" x2="227" y1="206" y2="206"/>
        <!--MD5=[848d83e6161f553cf93dc9dafd32026f]
link Productos.Computadora to java.lang.Override-->
        <path codeLine="7" d="M267.99,90.05 C255.56,99.04 240.3,108.49 225,114 C193.46,125.35 180.81,108.8 150,122 C128.82,131.08 109.05,147.85 94.58,162.35 " fill="none" id="Productos.Computadora-to-java.lang.Override" style="stroke:#A80036;stroke-width:1.0;stroke-dasharray:7.0,7.0;"/>
        <polygon fill="#A80036" points="91.02,165.98,100.1762,162.3518,94.5196,162.4089,94.4625,156.7524,91.02,165.98" style="stroke:#A80036;stroke-width:1.0;"/>
        <!--MD5=[fbe7ec0b4ac65959d08c3791b40bea5e]
link Productos.Computadora to SuperClases.Electronica-->
        <path codeLine="8" d="M298.67,90.23 C300.47,105.92 302.9,127.1 305.05,145.83 " fill="none" id="Productos.Computadora-to-SuperClases.Electronica" style="stroke:#A80036;stroke-width:1.0;"/>
        <polygon fill="none" points="312.02,145.18,307.34,165.85,298.11,146.78,312.02,145.18" style="stroke:#A80036;stroke-width:1.0;"/>
        <!--MD5=[a3d01ffee6655a8b0320ef3b26c77712]
link Productos.jeans to java.lang.Override-->
        <path codeLine="9" d="M76.67,90.23 C75.51,110.33 73.84,139.45 72.61,160.86 " fill="none" id="Productos.jeans-to-java.lang.Override" style="stroke:#A80036;stroke-width:1.0;stroke-dasharray:7.0,7.0;"/>
        <polygon fill="#A80036" points="72.33,165.85,76.8384,157.0936,72.6161,160.8582,68.8515,156.6359,72.33,165.85" style="stroke:#A80036;stroke-width:1.0;"/>
        <!--MD5=[3b709bcd38e2cdc3bbcc58732fc1b6e3]
link Productos.jeans to SuperClases.Ropa-->
        <path codeLine="10" d="M100.66,90.23 C117.54,107.53 140.93,131.51 160.43,151.51 " fill="none" id="Productos.jeans-to-SuperClases.Ropa" style="stroke:#A80036;stroke-width:1.0;"/>
        <polygon fill="none" points="165.47,146.65,174.42,165.85,155.45,156.42,165.47,146.65" style="stroke:#A80036;stroke-width:1.0;"/>
        <!--MD5=[386d59c7cb341953152a6a80af81b876]
@startuml
annotation java.lang.Override
class Productos.Computadora
class Productos.Ropa
class Productos.jeans
class SuperClases.Electronica
class SuperClases.Ropa
Productos.Computadora ..> java.lang.Override
Productos.Computadora - -|> SuperClases.Electronica
Productos.jeans ..> java.lang.Override
Productos.jeans - -|> SuperClases.Ropa
@enduml

PlantUML version 1.2021.3(Mon Mar 22 09:53:19 CST 2021)
(GPL source distribution)
Java Runtime: Java(TM) SE Runtime Environment
JVM: Java HotSpot(TM) 64-Bit Server VM
Default Encoding: Cp1252
Language: es
Country: ES
-->
    </g>
</svg>
